<svg id="Grupo_193" data-name="Grupo 193" xmlns="http://www.w3.org/2000/svg" width="148.998" height="147.408" viewBox="0 0 148.998 147.408">
  <path id="Trazado_135" data-name="Trazado 135" d="M-252.083,169.777h-23.789V146.365a7.047,7.047,0,0,0-7.044-7.034h-50.025a2.393,2.393,0,0,0-.92.185,2.3,2.3,0,0,0-.466.308,2.306,2.306,0,0,0-.3.2l-16.647,16.385,0,.007a2.42,2.42,0,0,0-.524.776,2.387,2.387,0,0,0-.187.928v11.66h-23.8a12.661,12.661,0,0,0-12.643,12.653v73.706a12.655,12.655,0,0,0,12.643,12.638h44.447v13.158h-16.635a2.4,2.4,0,0,0-2.4,2.4,2.4,2.4,0,0,0,2.4,2.4h68.126a2.4,2.4,0,0,0,2.4-2.4,2.4,2.4,0,0,0-2.4-2.4h-16.642V268.775h44.409a12.658,12.658,0,0,0,12.65-12.638V182.43A12.664,12.664,0,0,0-252.083,169.777Zm-28.6-23.412v86.609a2.241,2.241,0,0,1-2.237,2.237h-62.041a2.234,2.234,0,0,1-2.228-2.237V160.52h9.6a7.045,7.045,0,0,0,7.044-7.032v-9.351h47.622A2.236,2.236,0,0,1-280.679,146.365Zm-63.041,9.348,8.375-8.243v6.018a2.235,2.235,0,0,1-2.237,2.225Zm-32.068,18.87h23.8v58.391a7.047,7.047,0,0,0,7.034,7.044h62.041a7.052,7.052,0,0,0,7.044-7.044V174.584h23.789a7.854,7.854,0,0,1,7.844,7.846v63.519H-383.625V182.43A7.851,7.851,0,0,1-375.788,174.584Zm74.49,107.349h-25.236V268.775H-301.3Zm49.215-17.964h-123.7a7.844,7.844,0,0,1-7.837-7.832v-5.381h139.386v5.381A7.847,7.847,0,0,1-252.083,263.968Z" transform="translate(388.431 -139.331)" fill="#00f3f7"/>
  <path id="Trazado_136" data-name="Trazado 136" d="M-357.145,187.75a2.4,2.4,0,0,0-.932,3.268l.022.041a2.366,2.366,0,0,0,2.076,1.221,2.417,2.417,0,0,0,1.18-.308,2.423,2.423,0,0,0,.923-3.288A2.4,2.4,0,0,0-357.145,187.75Z" transform="translate(430.596 -71.815)" fill="#00f3f7"/>
  <path id="Trazado_137" data-name="Trazado 137" d="M-357.96,172.582a6.84,6.84,0,0,1,4.559,1.742,2.4,2.4,0,0,0,3.393-.19,2.4,2.4,0,0,0-.19-3.391,11.635,11.635,0,0,0-7.762-2.968A11.652,11.652,0,0,0-369.6,179.417a11.652,11.652,0,0,0,11.639,11.639,11.636,11.636,0,0,0,7.76-2.963,2.4,2.4,0,0,0,.192-3.393,2.4,2.4,0,0,0-3.393-.192,6.829,6.829,0,0,1-4.559,1.742,6.839,6.839,0,0,1-6.832-6.832A6.841,6.841,0,0,1-357.96,172.582Z" transform="translate(414.856 -99.417)" fill="#00f3f7"/>
  <path id="Trazado_138" data-name="Trazado 138" d="M-352.252,172.608a4.252,4.252,0,0,1,4.706,2.632,2.411,2.411,0,0,0,3.016,1.569,2.4,2.4,0,0,0,1.569-3.016,9.044,9.044,0,0,0-9.721-5.972,8.089,8.089,0,0,0-6.212,3.292,6.785,6.785,0,0,0-.632,5.984c1.42,3.583,4.891,4.155,7.421,4.573,2.463.406,3.276.67,3.545,1.545a1.762,1.762,0,0,1-.2,1.608,3.566,3.566,0,0,1-2.461,1.4c-3.014.243-4.388-1.6-4.708-2.624a2.4,2.4,0,0,0-3.009-1.576,2.4,2.4,0,0,0-1.579,3.009,8.943,8.943,0,0,0,8.728,6.025c.324,0,.656-.017.995-.046a8.418,8.418,0,0,0,6.03-3.518,6.582,6.582,0,0,0,.8-5.705c-1.192-3.848-4.753-4.434-7.354-4.864-2.307-.38-3.357-.646-3.677-1.43a1.829,1.829,0,0,1,.1-1.711A3.58,3.58,0,0,1-352.252,172.608Z" transform="translate(427.446 -99.418)" fill="#00f3f7"/>
  <path id="Trazado_139" data-name="Trazado 139" d="M-344.627,167.821a8.08,8.08,0,0,0-6.2,3.29,6.784,6.784,0,0,0-.639,5.989c1.425,3.581,4.893,4.153,7.426,4.571,2.466.406,3.278.673,3.547,1.538a1.778,1.778,0,0,1-.2,1.615,3.576,3.576,0,0,1-2.463,1.4,4.283,4.283,0,0,1-4.71-2.632,2.41,2.41,0,0,0-3.016-1.569,2.406,2.406,0,0,0-1.567,3.016,8.962,8.962,0,0,0,8.728,6.018c.324,0,.654-.017.992-.046a8.419,8.419,0,0,0,6.027-3.516,6.581,6.581,0,0,0,.8-5.71c-1.2-3.845-4.756-4.432-7.356-4.862-2.309-.38-3.36-.649-3.679-1.425a1.839,1.839,0,0,1,.1-1.716,3.573,3.573,0,0,1,2.644-1.178,4.252,4.252,0,0,1,4.706,2.632,2.409,2.409,0,0,0,3.014,1.569,2.4,2.4,0,0,0,1.569-3.016A9.038,9.038,0,0,0-344.627,167.821Z" transform="translate(438.75 -99.419)" fill="#00f3f7"/>
  <path id="Trazado_140" data-name="Trazado 140" d="M-366.509,155.1h50.364a2.4,2.4,0,0,0,2.4-2.4,2.4,2.4,0,0,0-2.4-2.4h-50.364a2.4,2.4,0,0,0-2.4,2.4A2.4,2.4,0,0,0-366.509,155.1Z" transform="translate(415.82 -123.955)" fill="#00f3f7"/>
  <path id="Trazado_141" data-name="Trazado 141" d="M-366.509,161.378h50.364a2.4,2.4,0,0,0,2.4-2.4,2.4,2.4,0,0,0-2.4-2.4h-50.364a2.4,2.4,0,0,0-2.4,2.4A2.4,2.4,0,0,0-366.509,161.378Z" transform="translate(415.82 -115.138)" fill="#00f3f7"/>
  <path id="Trazado_142" data-name="Trazado 142" d="M-366.509,167.658h50.364a2.4,2.4,0,0,0,2.4-2.4,2.4,2.4,0,0,0-2.4-2.4h-50.364a2.4,2.4,0,0,0-2.4,2.4A2.4,2.4,0,0,0-366.509,167.658Z" transform="translate(415.82 -106.326)" fill="#00f3f7"/>
  <path id="Trazado_143" data-name="Trazado 143" d="M-359.264,148.812h32.953a2.4,2.4,0,0,0,2.4-2.4,2.4,2.4,0,0,0-2.4-2.4h-32.953a2.4,2.4,0,0,0-2.4,2.4A2.4,2.4,0,0,0-359.264,148.812Z" transform="translate(425.986 -132.771)" fill="#00f3f7"/>
</svg>
