<svg id="Grupo_181" data-name="Grupo 181" xmlns="http://www.w3.org/2000/svg" width="148.998" height="125.577" viewBox="0 0 148.998 125.577">
  <path id="Trazado_241" data-name="Trazado 241" d="M-250.266,5.873H-377.6A10.845,10.845,0,0,0-388.431,16.7V120.616A10.847,10.847,0,0,0-377.6,131.45h127.331a10.847,10.847,0,0,0,10.834-10.834V16.7A10.845,10.845,0,0,0-250.266,5.873ZM-377.6,10.679h127.331a6.033,6.033,0,0,1,6.027,6.025V33.26H-383.625V16.7A6.033,6.033,0,0,1-377.6,10.679Zm127.331,115.964H-377.6a6.034,6.034,0,0,1-6.027-6.027V38.066h139.386v82.55A6.034,6.034,0,0,1-250.266,126.643Z" transform="translate(388.431 -5.873)" fill="#00f3f7"/>
  <path id="Trazado_242" data-name="Trazado 242" d="M-338.194,24.81a7.737,7.737,0,0,0,7.734-7.724,7.74,7.74,0,0,0-7.734-7.734,7.74,7.74,0,0,0-7.731,7.734A7.736,7.736,0,0,0-338.194,24.81Zm0-10.651a2.929,2.929,0,0,1,2.927,2.927A2.926,2.926,0,0,1-338.194,20a2.925,2.925,0,0,1-2.925-2.917A2.929,2.929,0,0,1-338.194,14.159Z" transform="translate(448.075 -0.99)" fill="#00f3f7"/>
  <path id="Trazado_243" data-name="Trazado 243" d="M-346.986,24.81a7.736,7.736,0,0,0,7.731-7.724,7.74,7.74,0,0,0-7.731-7.734,7.74,7.74,0,0,0-7.734,7.734A7.737,7.737,0,0,0-346.986,24.81Zm0-10.651a2.929,2.929,0,0,1,2.925,2.927A2.925,2.925,0,0,1-346.986,20a2.926,2.926,0,0,1-2.927-2.917A2.929,2.929,0,0,1-346.986,14.159Z" transform="translate(435.734 -0.99)" fill="#00f3f7"/>
  <path id="Trazado_244" data-name="Trazado 244" d="M-329.4,24.81a7.737,7.737,0,0,0,7.733-7.724A7.74,7.74,0,0,0-329.4,9.353a7.74,7.74,0,0,0-7.731,7.734A7.736,7.736,0,0,0-329.4,24.81Zm0-10.651a2.929,2.929,0,0,1,2.927,2.927A2.926,2.926,0,0,1-329.4,20a2.925,2.925,0,0,1-2.925-2.917A2.929,2.929,0,0,1-329.4,14.159Z" transform="translate(460.417 -0.99)" fill="#00f3f7"/>
  <path id="Trazado_245" data-name="Trazado 245" d="M-260.671,36.025H-380.464a2.4,2.4,0,0,0-2.4,2.4,2.4,2.4,0,0,0,2.4,2.4h119.792a2.4,2.4,0,0,0,2.4-2.4A2.4,2.4,0,0,0-260.671,36.025Z" transform="translate(396.238 36.436)" fill="#00f3f7"/>
  <path id="Trazado_246" data-name="Trazado 246" d="M-260.671,42.309H-380.464a2.4,2.4,0,0,0-2.4,2.4,2.4,2.4,0,0,0,2.4,2.4h119.792a2.4,2.4,0,0,0,2.4-2.4A2.4,2.4,0,0,0-260.671,42.309Z" transform="translate(396.238 45.254)" fill="#00f3f7"/>
  <path id="Trazado_247" data-name="Trazado 247" d="M-260.671,48.588H-380.464a2.4,2.4,0,0,0-2.4,2.4,2.4,2.4,0,0,0,2.4,2.4h119.792a2.4,2.4,0,0,0,2.4-2.4A2.4,2.4,0,0,0-260.671,48.588Z" transform="translate(396.238 54.065)" fill="#00f3f7"/>
  <path id="Trazado_248" data-name="Trazado 248" d="M-380.436,44.537a2.4,2.4,0,0,0,2.4-2.4v-6.15h6.517v6.15a2.4,2.4,0,0,0,2.4,2.4,2.4,2.4,0,0,0,2.4-2.4V25.028a2.4,2.4,0,0,0-2.4-2.4,2.4,2.4,0,0,0-2.4,2.4v6.15h-6.517v-6.15a2.4,2.4,0,0,0-2.4-2.4,2.4,2.4,0,0,0-2.4,2.4V42.134A2.4,2.4,0,0,0-380.436,44.537Z" transform="translate(396.278 17.633)" fill="#00f3f7"/>
  <path id="Trazado_249" data-name="Trazado 249" d="M-370.666,27.431h3.963v14.7a2.4,2.4,0,0,0,2.4,2.4,2.4,2.4,0,0,0,2.4-2.4v-14.7h3.97a2.4,2.4,0,0,0,2.4-2.4,2.4,2.4,0,0,0-2.4-2.4h-12.739a2.4,2.4,0,0,0-2.4,2.4A2.4,2.4,0,0,0-370.666,27.431Z" transform="translate(409.987 17.633)" fill="#00f3f7"/>
  <path id="Trazado_250" data-name="Trazado 250" d="M-360.307,44.54a2.4,2.4,0,0,0,2.4-2.4V33.129l3.732,5.736a2.5,2.5,0,0,0,4.03,0l3.73-5.734v9a2.4,2.4,0,0,0,2.4,2.4,2.4,2.4,0,0,0,2.4-2.4V25.031a2.4,2.4,0,0,0-1.721-2.3,2.4,2.4,0,0,0-2.7.993l-6.133,9.43-6.135-9.43a2.4,2.4,0,0,0-2.7-.993,2.4,2.4,0,0,0-1.718,2.3V42.137A2.4,2.4,0,0,0-360.307,44.54Z" transform="translate(424.523 17.631)" fill="#00f3f7"/>
  <path id="Trazado_251" data-name="Trazado 251" d="M-348.467,44.537h10.024a2.4,2.4,0,0,0,2.4-2.4,2.4,2.4,0,0,0-2.4-2.4h-7.621v-14.7a2.4,2.4,0,0,0-2.4-2.4,2.4,2.4,0,0,0-2.4,2.4V42.134A2.4,2.4,0,0,0-348.467,44.537Z" transform="translate(441.136 17.633)" fill="#00f3f7"/>
  <path id="Trazado_252" data-name="Trazado 252" d="M-320.518,29.743h-17.3a2.4,2.4,0,0,0-2.4,2.4,2.4,2.4,0,0,0,2.4,2.4h17.3a2.4,2.4,0,0,0,2.4-2.4A2.4,2.4,0,0,0-320.518,29.743Z" transform="translate(456.085 27.621)" fill="#00f3f7"/>
  <path id="Trazado_253" data-name="Trazado 253" d="M-320.518,23.463h-17.3a2.4,2.4,0,0,0-2.4,2.4,2.4,2.4,0,0,0,2.4,2.4h17.3a2.4,2.4,0,0,0,2.4-2.4A2.4,2.4,0,0,0-320.518,23.463Z" transform="translate(456.085 18.809)" fill="#00f3f7"/>
</svg>
