<svg id="Grupo_175" data-name="Grupo 175" xmlns="http://www.w3.org/2000/svg" width="112.044" height="148.999" viewBox="0 0 112.044 148.999">
  <path id="Trazado_318" data-name="Trazado 318" d="M-683.951-26.938h-8.594a2.4,2.4,0,0,0-2.4,2.4V1.175a2.4,2.4,0,0,0,2.4,2.4,2.4,2.4,0,0,0,2.4-2.4V-8.332h6.191a9.316,9.316,0,0,0,9.31-9.3A9.316,9.316,0,0,0-683.951-26.938Zm0,13.8h-6.191v-8.993h6.191a4.5,4.5,0,0,1,4.5,4.5A4.5,4.5,0,0,1-683.951-13.139Z" transform="translate(768.954 125.618)" fill="#00f3f7"/>
  <path id="Trazado_319" data-name="Trazado 319" d="M-687.991-26.938a2.4,2.4,0,0,0-2.4,2.4v10.452h-11.655V-24.535a2.4,2.4,0,0,0-2.4-2.4,2.4,2.4,0,0,0-2.4,2.4V1.175a2.4,2.4,0,0,0,2.4,2.4,2.4,2.4,0,0,0,2.4-2.4V-9.277h11.655V1.175a2.4,2.4,0,0,0,2.4,2.4,2.4,2.4,0,0,0,2.4-2.4V-24.535A2.4,2.4,0,0,0-687.991-26.938Z" transform="translate(752.245 125.618)" fill="#00f3f7"/>
  <path id="Trazado_320" data-name="Trazado 320" d="M-707.366-26.938h-8.591a2.4,2.4,0,0,0-2.4,2.4V1.175a2.4,2.4,0,0,0,2.4,2.4,2.4,2.4,0,0,0,2.4-2.4V-8.332h6.188a9.312,9.312,0,0,0,9.3-9.3A9.312,9.312,0,0,0-707.366-26.938Zm0,13.8h-6.188v-8.993h6.188a4.5,4.5,0,0,1,4.5,4.5A4.5,4.5,0,0,1-707.366-13.139Z" transform="translate(736.101 125.618)" fill="#00f3f7"/>
  <path id="Trazado_321" data-name="Trazado 321" d="M-623.066,81a9.383,9.383,0,0,0,9.368-9.377V-58.632A9.38,9.38,0,0,0-623.066-68h-75.239c-.053,0-.1.026-.154.031a2.331,2.331,0,0,0-.6.115c-.079.029-.159.048-.238.084a2.377,2.377,0,0,0-.7.461l-25.032,24.645a2.354,2.354,0,0,0-.478.707c-.036.074-.055.151-.084.228a2.425,2.425,0,0,0-.125.627c0,.05-.031.1-.031.151V71.621A9.383,9.383,0,0,0-716.373,81ZM-700.709-59.858v11.934a4.575,4.575,0,0,1-4.571,4.571h-12.194ZM-720.937,71.621V-38.546h15.657a9.39,9.39,0,0,0,9.377-9.377v-15.27h72.836a4.567,4.567,0,0,1,4.561,4.561V71.621a4.57,4.57,0,0,1-4.561,4.571h-93.306A4.572,4.572,0,0,1-720.937,71.621Z" transform="translate(725.743 68)" fill="#00f3f7"/>
  <path id="Trazado_322" data-name="Trazado 322" d="M-717.42-40.663h78.794a2.4,2.4,0,0,0,2.4-2.4,2.4,2.4,0,0,0-2.4-2.4H-717.42a2.4,2.4,0,0,0-2.4,2.4A2.4,2.4,0,0,0-717.42-40.663Z" transform="translate(734.05 99.616)" fill="#00f3f7"/>
  <path id="Trazado_323" data-name="Trazado 323" d="M-717.42-35.328h78.094a2.4,2.4,0,0,0,2.4-2.4,2.4,2.4,0,0,0-2.4-2.4H-717.42a2.4,2.4,0,0,0-2.4,2.4A2.4,2.4,0,0,0-717.42-35.328Z" transform="translate(734.05 107.102)" fill="#00f3f7"/>
  <path id="Trazado_324" data-name="Trazado 324" d="M-717.42-29.989h39.393a2.4,2.4,0,0,0,2.4-2.4,2.4,2.4,0,0,0-2.4-2.4H-717.42a2.4,2.4,0,0,0-2.4,2.4A2.4,2.4,0,0,0-717.42-29.989Z" transform="translate(734.05 114.593)" fill="#00f3f7"/>
  <path id="Trazado_325" data-name="Trazado 325" d="M-717.42-46h78.794a2.4,2.4,0,0,0,2.4-2.4,2.4,2.4,0,0,0-2.4-2.4H-717.42a2.4,2.4,0,0,0-2.4,2.4A2.4,2.4,0,0,0-717.42-46Z" transform="translate(734.05 92.125)" fill="#00f3f7"/>
  <path id="Trazado_326" data-name="Trazado 326" d="M-705.473-51.34h50.083a2.4,2.4,0,0,0,2.4-2.4,2.4,2.4,0,0,0-2.4-2.4h-50.083a2.4,2.4,0,0,0-2.4,2.4A2.4,2.4,0,0,0-705.473-51.34Z" transform="translate(750.814 84.634)" fill="#00f3f7"/>
</svg>
